<?xml version="1.0" encoding="UTF-8"?>
<svg xmlns="http://www.w3.org/2000/svg" xmlns:xlink="http://www.w3.org/1999/xlink" width="1067px" height="398px" viewBox="0 0 806 301" version="1.1">
<g id="surface1">
<path style=" stroke:none;fill-rule:nonzero;fill:rgb(12.156863%,43.921569%,75.686276%);fill-opacity:1;" d="M 0 280.109375 L 145.777344 280.109375 L 145.777344 301.078125 L 0 301.078125 Z M 0 280.109375 "/>
<path style=" stroke:none;fill-rule:nonzero;fill:rgb(12.156863%,43.921569%,75.686276%);fill-opacity:1;" d="M 0 240.070312 L 145.777344 240.070312 L 145.777344 261.039062 L 0 261.039062 Z M 0 240.070312 "/>
<path style=" stroke:none;fill-rule:nonzero;fill:rgb(12.156863%,43.921569%,75.686276%);fill-opacity:1;" d="M 41.589844 200.070312 L 104.117188 200.070312 L 104.117188 221.039062 L 41.589844 221.039062 Z M 41.589844 200.070312 "/>
<path style=" stroke:none;fill-rule:nonzero;fill:rgb(12.156863%,43.921569%,75.686276%);fill-opacity:1;" d="M 41.589844 160.070312 L 104.117188 160.070312 L 104.117188 181.035156 L 41.589844 181.035156 Z M 41.589844 160.070312 "/>
<path style=" stroke:none;fill-rule:nonzero;fill:rgb(12.156863%,43.921569%,75.686276%);fill-opacity:1;" d="M 41.589844 120.070312 L 104.117188 120.070312 L 104.117188 141.035156 L 41.589844 141.035156 Z M 41.589844 120.070312 "/>
<path style=" stroke:none;fill-rule:nonzero;fill:rgb(12.156863%,43.921569%,75.686276%);fill-opacity:1;" d="M 41.589844 80 L 104.117188 80 L 104.117188 100.96875 L 41.589844 100.96875 Z M 41.589844 80 "/>
<path style=" stroke:none;fill-rule:nonzero;fill:rgb(12.156863%,43.921569%,75.686276%);fill-opacity:1;" d="M 0 40 L 145.777344 40 L 145.777344 60.964844 L 0 60.964844 Z M 0 40 "/>
<path style=" stroke:none;fill-rule:nonzero;fill:rgb(12.156863%,43.921569%,75.686276%);fill-opacity:1;" d="M 0 0 L 145.777344 0 L 145.777344 20.964844 L 0 20.964844 Z M 0 0 "/>
<path style=" stroke:none;fill-rule:nonzero;fill:rgb(12.156863%,43.921569%,75.686276%);fill-opacity:1;" d="M 166.574219 300.886719 L 321.859375 301.109375 C 342.652344 301.109375 361.441406 293.082031 375.476562 280.144531 L 166.578125 280.144531 Z M 166.574219 300.886719 "/>
<path style=" stroke:none;fill-rule:nonzero;fill:rgb(12.156863%,43.921569%,75.686276%);fill-opacity:1;" d="M 166.574219 261.035156 L 390.777344 261.035156 C 394.566406 254.570312 397.386719 247.503906 399.097656 240.070312 L 166.578125 240.070312 Z M 166.574219 261.035156 "/>
<path style=" stroke:none;fill-rule:nonzero;fill:rgb(12.156863%,43.921569%,75.686276%);fill-opacity:1;" d="M 208.234375 200.070312 L 270.6875 200.070312 L 270.6875 221.039062 L 208.234375 221.039062 Z M 208.234375 200.070312 "/>
<path style=" stroke:none;fill-rule:nonzero;fill:rgb(12.156863%,43.921569%,75.686276%);fill-opacity:1;" d="M 333.21875 200.070312 L 333.21875 221.039062 L 401.394531 221.039062 C 401.394531 213.824219 400.425781 206.761719 398.570312 200.070312 Z M 333.21875 200.070312 "/>
<path style=" stroke:none;fill-rule:nonzero;fill:rgb(12.156863%,43.921569%,75.686276%);fill-opacity:1;" d="M 373.324219 160.070312 L 208.234375 160.070312 L 208.234375 181.035156 L 390.769531 181.035156 C 386.019531 173.007812 380.152344 165.945312 373.320312 160.070312 Z M 373.324219 160.070312 "/>
<path style=" stroke:none;fill-rule:nonzero;fill:rgb(12.156863%,43.921569%,75.686276%);fill-opacity:1;" d="M 208.234375 120.070312 L 208.234375 141.035156 L 373.324219 141.035156 C 380.304688 135.164062 386.171875 128.097656 390.777344 120.070312 Z M 208.234375 120.070312 "/>
<path style=" stroke:none;fill-rule:nonzero;fill:rgb(12.156863%,43.921569%,75.686276%);fill-opacity:1;" d="M 208.234375 80 L 270.6875 80 L 270.6875 100.96875 L 208.234375 100.96875 Z M 208.234375 80 "/>
<path style=" stroke:none;fill-rule:nonzero;fill:rgb(12.156863%,43.921569%,75.686276%);fill-opacity:1;" d="M 333.21875 100.964844 L 398.570312 100.964844 C 400.425781 94.273438 401.394531 87.210938 401.394531 80 L 333.21875 80 Z M 333.21875 100.964844 "/>
<path style=" stroke:none;fill-rule:nonzero;fill:rgb(12.156863%,43.921569%,75.686276%);fill-opacity:1;" d="M 390.777344 40 L 166.574219 40 L 166.574219 60.964844 L 399.09375 60.964844 C 397.164062 53.53125 394.339844 46.46875 390.777344 40 Z M 390.777344 40 "/>
<path style=" stroke:none;fill-rule:nonzero;fill:rgb(12.156863%,43.921569%,75.686276%);fill-opacity:1;" d="M 321.859375 0 L 166.574219 0 L 166.574219 20.964844 L 375.410156 20.964844 C 361.445312 8.03125 342.511719 0 321.863281 0 Z M 321.859375 0 "/>
<path style=" stroke:none;fill-rule:nonzero;fill:rgb(12.156863%,43.921569%,75.686276%);fill-opacity:1;" d="M 416.546875 60.964844 L 556.828125 60.964844 L 549.625 40 L 416.546875 40 Z M 416.546875 60.964844 "/>
<path style=" stroke:none;fill-rule:nonzero;fill:rgb(12.156863%,43.921569%,75.686276%);fill-opacity:1;" d="M 416.546875 20.964844 L 543.019531 20.964844 L 535.8125 0 L 416.546875 0 Z M 416.546875 20.964844 "/>
<path style=" stroke:none;fill-rule:nonzero;fill:rgb(12.156863%,43.921569%,75.686276%);fill-opacity:1;" d="M 645.574219 301.128906 L 645.574219 280.164062 L 749.765625 280.164062 L 749.765625 301.128906 Z M 645.574219 301.128906 "/>
<path style=" stroke:none;fill-rule:nonzero;fill:rgb(12.156863%,43.921569%,75.686276%);fill-opacity:1;" d="M 645.574219 261.035156 L 645.574219 240.070312 L 749.765625 240.070312 L 749.765625 261.035156 Z M 645.574219 261.035156 "/>
<path style=" stroke:none;fill-rule:nonzero;fill:rgb(12.156863%,43.921569%,75.686276%);fill-opacity:1;" d="M 583.117188 137.019531 L 577.253906 120.070312 L 458.128906 120.070312 L 458.128906 141.035156 L 520.660156 141.035156 L 520.660156 121.78125 L 527.273438 141.035156 L 638.964844 141.035156 L 645.574219 121.78125 L 645.574219 141.035156 L 708.101562 141.035156 L 708.101562 120.070312 L 588.988281 120.070312 Z M 583.117188 137.019531 "/>
<path style=" stroke:none;fill-rule:nonzero;fill:rgb(12.156863%,43.921569%,75.686276%);fill-opacity:1;" d="M 708.101562 80 L 602.796875 80 L 595.59375 100.964844 L 708.101562 100.964844 Z M 708.101562 80 "/>
<path style=" stroke:none;fill-rule:nonzero;fill:rgb(12.156863%,43.921569%,75.686276%);fill-opacity:1;" d="M 749.765625 20.964844 L 749.765625 0 L 630.5 0 L 623.296875 20.964844 Z M 749.765625 20.964844 "/>
<path style=" stroke:none;fill-rule:nonzero;fill:rgb(12.156863%,43.921569%,75.686276%);fill-opacity:1;" d="M 575.917969 280.148438 L 583.117188 300.886719 L 590.320312 280.148438 Z M 575.917969 280.148438 "/>
<path style=" stroke:none;fill-rule:nonzero;fill:rgb(12.156863%,43.921569%,75.686276%);fill-opacity:1;" d="M 561.949219 240.070312 L 569.304688 261.035156 L 596.933594 261.035156 L 604.359375 240.070312 Z M 561.949219 240.070312 "/>
<path style=" stroke:none;fill-rule:nonzero;fill:rgb(12.156863%,43.921569%,75.686276%);fill-opacity:1;" d="M 547.914062 200.070312 L 555.269531 221.035156 L 610.96875 221.035156 L 618.316406 200.070312 Z M 547.914062 200.070312 "/>
<path style=" stroke:none;fill-rule:nonzero;fill:rgb(12.156863%,43.921569%,75.686276%);fill-opacity:1;" d="M 541.308594 181.035156 L 625.007812 181.035156 L 632.136719 160.070312 L 534.105469 160.070312 Z M 541.308594 181.035156 "/>
<path style=" stroke:none;fill-rule:nonzero;fill:rgb(12.156863%,43.921569%,75.686276%);fill-opacity:1;" d="M 458.128906 100.964844 L 570.640625 100.964844 L 563.441406 80 L 458.128906 80 Z M 458.128906 100.964844 "/>
<path style=" stroke:none;fill-rule:nonzero;fill:rgb(12.156863%,43.921569%,75.686276%);fill-opacity:1;" d="M 749.765625 40 L 616.609375 40 L 609.484375 60.964844 L 749.765625 60.964844 Z M 749.765625 40 "/>
<path style=" stroke:none;fill-rule:nonzero;fill:rgb(12.156863%,43.921569%,75.686276%);fill-opacity:1;" d="M 416.546875 280.148438 L 520.742188 280.148438 L 520.742188 301.113281 L 416.546875 301.113281 Z M 416.546875 280.148438 "/>
<path style=" stroke:none;fill-rule:nonzero;fill:rgb(12.156863%,43.921569%,75.686276%);fill-opacity:1;" d="M 416.546875 240.070312 L 520.742188 240.070312 L 520.742188 261.039062 L 416.546875 261.039062 Z M 416.546875 240.070312 "/>
<path style=" stroke:none;fill-rule:nonzero;fill:rgb(12.156863%,43.921569%,75.686276%);fill-opacity:1;" d="M 458.128906 200.070312 L 520.660156 200.070312 L 520.660156 221.039062 L 458.128906 221.039062 Z M 458.128906 200.070312 "/>
<path style=" stroke:none;fill-rule:nonzero;fill:rgb(12.156863%,43.921569%,75.686276%);fill-opacity:1;" d="M 458.128906 160.070312 L 520.660156 160.070312 L 520.660156 181.035156 L 458.128906 181.035156 Z M 458.128906 160.070312 "/>
<path style=" stroke:none;fill-rule:nonzero;fill:rgb(12.156863%,43.921569%,75.686276%);fill-opacity:1;" d="M 645.574219 160.070312 L 708.101562 160.070312 L 708.101562 181.035156 L 645.574219 181.035156 Z M 645.574219 160.070312 "/>
<path style=" stroke:none;fill-rule:nonzero;fill:rgb(12.156863%,43.921569%,75.686276%);fill-opacity:1;" d="M 645.574219 200.070312 L 708.101562 200.070312 L 708.101562 221.039062 L 645.574219 221.039062 Z M 645.574219 200.070312 "/>
<path style=" stroke:none;fill-rule:nonzero;fill:rgb(12.156863%,43.921569%,75.686276%);fill-opacity:1;" d="M 788.753906 268.085938 C 779.644531 268.085938 772.261719 275.480469 772.261719 284.597656 C 772.261719 293.71875 779.644531 301.113281 788.753906 301.113281 C 797.863281 301.113281 805.25 293.71875 805.25 284.597656 C 805.25 275.480469 797.863281 268.085938 788.753906 268.085938 Z M 788.753906 271.085938 C 796.207031 271.085938 802.25 277.136719 802.25 284.597656 C 802.25 292.0625 796.207031 298.109375 788.753906 298.109375 C 781.300781 298.109375 775.257812 292.0625 775.257812 284.597656 C 775.257812 277.136719 781.300781 271.085938 788.753906 271.085938 Z M 781.746094 276.1875 L 781.746094 293.011719 L 785.835938 293.011719 L 785.835938 287.207031 L 788.15625 287.207031 L 791.28125 293.011719 L 795.765625 293.011719 L 791.996094 286.570312 C 793.84375 285.84375 795.042969 284.15625 795.042969 281.503906 C 795.042969 278.4375 793.125 276.1875 789.359375 276.1875 Z M 785.835938 279.40625 L 788.875 279.40625 C 790.160156 279.40625 790.875 279.96875 790.875 281.175781 L 790.875 282.386719 C 790.875 283.589844 790.160156 284.15625 788.875 284.15625 L 785.835938 284.15625 Z M 785.835938 279.40625 "/>
</g>
</svg>
