<svg xmlns="http://www.w3.org/2000/svg" fill="none" viewBox="0 0 66.493 57" style="max-height: 500px" width="66.493" height="57">
<path fill="#0E1214" d="M43.8362 35.134C42.3296 33.6275 39.9874 33.4912 38.3338 34.7072L35.8803 32.2537C36.4542 31.4933 36.8057 30.5571 36.8057 29.5348C36.8057 27.0276 34.772 24.9938 32.2647 24.9938C29.7574 24.9938 27.7236 27.0276 27.7236 29.5348C27.7236 32.0421 29.7574 34.0759 32.2647 34.0759C33.2906 34.0759 34.2232 33.7244 34.9836 33.154L37.437 35.6075C36.3646 37.0674 36.3466 39.051 37.3868 40.536L34.937 42.8639C34.2052 42.333 33.2834 41.9994 32.2647 41.9994C29.9296 41.9994 28.0321 43.6745 28.0321 45.7442C28.0321 47.8139 29.926 49.4925 32.2647 49.4925C34.6034 49.4925 36.4973 47.8139 36.4973 45.7442C36.4973 45.016 36.2498 44.3417 35.8444 43.7642L38.2764 41.4506C39.9443 42.7491 42.3404 42.6558 43.8648 41.1314C45.5148 39.4778 45.5112 36.7912 43.8433 35.1269"/>
<path fill="#0E1214" d="M27.2138 18.6341L29.8144 16.3026C30.5067 16.7366 31.346 16.9985 32.2571 16.9985C33.1682 16.9985 34.0111 16.7366 34.6998 16.3026L37.3075 18.6413C36.2673 20.2554 36.4717 22.4506 37.9101 23.889C39.3449 25.3202 41.5257 25.5282 43.1363 24.5024L45.4247 27.0814C44.9835 27.7772 44.7181 28.6202 44.7181 29.542C44.7181 31.8771 46.3968 33.771 48.4664 33.771C50.5361 33.771 52.2076 31.8771 52.2076 29.542C52.2076 27.2069 50.5325 25.3094 48.4664 25.3094C47.645 25.3094 46.8954 25.6143 46.2784 26.1201L44.0796 23.6451C45.4247 22.013 45.3314 19.5811 43.7747 18.0243C42.2252 16.4748 39.804 16.3744 38.1719 17.7051L35.6647 15.4597C36.1776 14.8391 36.4861 14.0823 36.4861 13.2573C36.4861 11.1876 34.5922 9.51255 32.2535 9.51255C29.9148 9.51255 28.0209 11.1876 28.0209 13.2573C28.0209 14.0823 28.333 14.8391 28.8423 15.4597L26.3386 17.7051C24.8465 16.4748 22.7445 16.3851 21.1986 17.4684L19.5844 15.7861C20.5063 14.5773 20.6784 13.0493 20.083 11.8584L22.2208 10.047C23.5157 11.0513 25.5065 10.9437 26.9484 9.6919C28.5625 8.2894 28.8638 5.99735 27.6264 4.56975C26.9986 3.84519 26.0947 3.48291 25.1478 3.48291C24.2008 3.48291 23.2575 3.82726 22.4576 4.51953C21.0443 5.74627 20.639 7.6581 21.3923 9.07136L19.2831 10.8612C17.9093 9.7457 15.7608 9.95733 14.3475 11.4172C12.8589 12.9524 12.7513 15.2588 14.1108 16.5788C15.3052 17.7374 17.2278 17.7374 18.6877 16.6828L20.2911 18.3543C19.0177 20.0151 19.1397 22.4076 20.6784 23.9464C22.35 25.6215 25.0437 25.6358 26.6973 23.9858C28.1429 22.5403 28.3115 20.2949 27.2103 18.6341"/>
<path fill="#0E1214" d="M15.9726 25.3094C13.903 25.3094 12.2279 27.2033 12.2279 29.542C12.2279 30.4925 12.5184 31.3642 12.9883 32.0708L11.2737 34.0902C10.6568 33.6203 9.91071 33.3585 9.118 33.4159C8.52256 33.4625 7.98452 33.6921 7.51821 34.0292L5.39835 31.504C5.67454 30.9301 5.83953 30.263 5.83953 29.542C5.83953 28.821 5.66736 28.1216 5.3804 27.5405L7.41061 25.0583C7.86615 25.3847 8.39343 25.6035 8.97093 25.6466C10.8541 25.7901 12.5112 24.1759 12.6727 22.0453C12.8341 19.9147 11.4352 18.0746 9.54842 17.9347C8.97451 17.888 8.4293 18.0243 7.93789 18.2718L6.74345 16.2309C6.84747 16.0982 6.95148 15.969 7.04833 15.822C8.02756 14.3011 8.00245 12.6404 6.98376 12.1167C6.77214 12.0055 6.5354 11.9552 6.28432 11.9552C5.32302 11.9552 4.1465 12.7121 3.36814 13.9137C2.38532 15.4346 2.41401 17.0917 3.42911 17.619C4.08193 17.9562 4.98225 17.7446 5.80366 17.1455L6.91561 19.043C6.32735 19.6851 5.92562 20.5495 5.85029 21.536C5.77855 22.5116 6.04398 23.4191 6.52105 24.1365L4.59845 26.4859C4.12139 26.0555 3.54748 25.7972 2.91977 25.7972C1.30924 25.7972 0 27.4759 0 29.5456C0 31.6152 1.30565 33.2939 2.91977 33.2939C3.55825 33.2939 4.1465 33.0213 4.62715 32.573L6.63583 34.969C6.17312 35.6828 5.91845 36.5724 5.99019 37.5337C6.1516 39.6643 7.80877 41.2749 9.69191 41.1314C11.5786 40.9915 12.9739 39.1514 12.8197 37.0172C12.7623 36.2711 12.5148 35.5967 12.1454 35.03L13.8492 33.0249C14.4518 33.4948 15.1835 33.771 15.969 33.771C18.0387 33.771 19.7138 31.8771 19.7138 29.542C19.7138 27.2069 18.0351 25.3094 15.969 25.3094"/>
<path fill="#0E1214" d="M61.6989 25.7937C61.0568 25.7937 60.4758 26.0878 60.0023 26.5648L57.8968 24.0934C58.3487 23.3868 58.5998 22.5044 58.528 21.5539C58.4599 20.6321 58.1012 19.825 57.5739 19.1973L58.5747 17.6585C59.4391 18.3615 60.4148 18.609 61.1035 18.175C62.0935 17.5509 62.097 15.7753 61.1106 14.215C60.361 13.0206 59.2526 12.296 58.3272 12.296C58.0402 12.296 57.7712 12.3678 57.5381 12.5148C56.5481 13.1354 56.5445 14.9109 57.5273 16.4748C57.5775 16.5537 57.6313 16.6183 57.6851 16.69L56.5947 18.3687C56.0638 18.0674 55.4612 17.906 54.8263 17.9526C52.9396 18.0925 51.5443 19.9326 51.7021 22.0668C51.8635 24.1975 53.5207 25.808 55.4074 25.6681C56.0136 25.6215 56.5588 25.3883 57.0287 25.0368L59.2741 27.6732C59.0338 28.2256 58.8832 28.8569 58.8832 29.542C58.8832 31.6117 60.1458 33.2903 61.7025 33.2903C63.2592 33.2903 64.5218 31.6117 64.5218 29.542C64.5218 27.4723 63.2592 25.7937 61.7025 25.7937"/>
<path fill="#0E1214" d="M12.8806 9.22918C13.8347 8.35397 14.3297 7.25278 14.2759 6.35963L16.6863 4.61997C17.3571 4.87106 18.3004 4.80291 19.2653 4.36171C20.8687 3.62639 21.9161 2.14499 21.6004 1.05456C21.4067 0.369453 20.7216 0 19.8464 0C19.3227 0 18.7273 0.132716 18.1283 0.40891C16.5357 1.14065 15.4919 2.60411 15.786 3.69454L13.7056 5.19747C12.8447 4.5303 11.2557 4.84954 9.99669 6.00812C8.63366 7.25637 8.17454 8.98886 8.97442 9.87483C9.77072 10.7644 11.5211 10.4739 12.8806 9.2256"/>
<path fill="#0E1214" d="M60.5186 41.361C59.9017 41.0704 59.0802 41.2749 58.3234 41.8129L57.4769 40.188C58.1369 39.5388 58.5888 38.6098 58.6642 37.5552C58.8256 35.4246 57.4231 33.5845 55.54 33.441C55.4646 33.4338 55.3857 33.4338 55.3104 33.4338C53.5205 33.4338 51.9889 35.0013 51.8346 37.0459C51.7701 37.9175 51.9781 38.7353 52.3619 39.4132L49.869 42.0353C48.4952 41.1995 46.5618 41.4973 45.2562 42.8424C43.7676 44.374 43.66 46.6876 45.0195 48.004C46.1386 49.0908 47.8998 49.1446 49.3202 48.2766L51.1639 50.6009C50.1165 51.7918 49.7327 53.1799 50.3245 53.8686C50.5505 54.1269 50.8841 54.2524 51.2787 54.256H51.3074C52.0785 54.2488 53.0721 53.7897 53.9509 52.9647C55.2925 51.6985 55.8448 50.0521 55.1813 49.2881C54.6074 48.6245 53.3125 48.8433 52.1037 49.7365L50.2959 47.4587C51.4975 46.0993 51.6804 44.2197 50.7908 42.9213L53.1762 40.414C53.6783 40.8373 54.2845 41.1135 54.9624 41.1637C55.4718 41.2031 55.9596 41.1027 56.4116 40.9126L57.3621 42.7383C57.2222 42.9141 57.0895 43.1006 56.9675 43.3015C56.0349 44.8475 56.1103 46.4903 57.1397 46.9745C58.1692 47.4587 59.7582 46.5943 60.6908 45.0483C61.6234 43.5024 61.5481 41.8559 60.5222 41.3753"/>
<path fill="#0E1214" d="M71.979 12.2709H73.5644V30.5069H71.979V12.2709Z"/>
<path fill="#0E1214" d="M77.4453 17.3823H78.9267V19.5022C79.5723 18.6341 80.3113 17.9957 81.1363 17.5868C81.9613 17.1778 82.8508 16.9734 83.8049 16.9734C85.2684 16.9734 86.366 17.3787 87.1013 18.1858C87.8331 18.9928 88.1989 20.1837 88.1989 21.7476V30.5105H86.7175V22.031C86.7175 20.7181 86.4485 19.7676 85.9141 19.1686C85.376 18.5732 84.5725 18.2754 83.5 18.2754C82.8687 18.2754 82.2697 18.383 81.6994 18.5947C81.1291 18.8063 80.6126 19.1363 80.1534 19.5775C79.7087 19.9864 79.3966 20.3917 79.2101 20.7899C79.0236 21.1916 78.9303 21.7727 78.9303 22.5403V30.5105H77.4489V17.3823H77.4453Z"/>
<path fill="#0E1214" d="M100.205 27.0885C100.205 26.3891 100.004 25.8403 99.6057 25.4421C99.204 25.044 98.4005 24.7391 97.1917 24.5346L95.7103 24.3051C94.2468 24.0683 93.1564 23.6738 92.439 23.1286C91.7252 22.5833 91.3665 21.7584 91.3665 20.65C91.3665 19.5416 91.822 18.5911 92.7331 17.9419C93.6442 17.2962 94.8422 16.9698 96.3201 16.9698C97.4428 16.9698 98.3467 17.1061 99.0282 17.3787C99.7097 17.6513 100.237 18.0423 100.614 18.5552C100.987 19.0646 101.27 19.6708 101.457 20.3702L100.104 20.5998C99.8317 19.764 99.4299 19.1506 98.9026 18.7597C98.3754 18.3687 97.5324 18.1714 96.3739 18.1714C95.0969 18.1714 94.1822 18.3938 93.6263 18.835C93.0739 19.2798 92.7977 19.8573 92.7977 20.5711C92.7977 21.2347 93.0057 21.7512 93.4254 22.117C93.8415 22.4829 94.6055 22.7591 95.7103 22.9456L97.371 23.2003C98.9708 23.4729 100.101 23.8997 100.757 24.4772C101.414 25.0547 101.74 25.9264 101.74 27.0814C101.74 28.2364 101.309 29.169 100.449 29.8648C99.5877 30.5643 98.3144 30.9122 96.6285 30.9122C95.0431 30.9122 93.741 30.593 92.7188 29.9545C91.6965 29.316 91.1262 28.283 91.0078 26.8518H92.439C92.5932 27.8382 93.0165 28.5592 93.7159 29.0111C94.4154 29.4631 95.3767 29.6891 96.6034 29.6891C97.8302 29.6891 98.7771 29.4631 99.351 29.0111C99.9213 28.5592 100.208 27.9171 100.208 27.0814L100.205 27.0885Z"/>
<path fill="#0E1214" d="M105.492 26.5254V18.5803H103.447V17.3787H105.492V13.7523H106.973V17.3787H110.879V18.5803H106.973V26.9056C106.973 27.7414 107.149 28.387 107.497 28.8461C107.845 29.3053 108.386 29.5348 109.118 29.5348C109.477 29.5348 109.8 29.5061 110.09 29.4452C110.381 29.3842 110.653 29.3053 110.908 29.2013L111.188 30.3778C110.865 30.4961 110.521 30.5966 110.155 30.6719C109.789 30.7472 109.376 30.7867 108.917 30.7867C107.605 30.7867 106.708 30.4136 106.224 29.664C105.739 28.9143 105.495 27.8669 105.495 26.5218L105.492 26.5254Z"/>
<path fill="#0E1214" d="M113.283 12.2709H114.814V14.7495H113.283V12.2709ZM113.308 17.3823H114.789V30.5105H113.308V17.3823Z"/>
<path fill="#0E1214" d="M119.154 26.5254V18.5803H117.11V17.3787H119.154V13.7523H120.636V17.3787H124.542V18.5803H120.636V26.9056C120.636 27.7414 120.812 28.387 121.16 28.8461C121.507 29.3053 122.049 29.5348 122.781 29.5348C123.14 29.5348 123.462 29.5061 123.753 29.4452C124.043 29.3842 124.316 29.3053 124.571 29.2013L124.85 30.3778C124.528 30.4961 124.183 30.5966 123.817 30.6719C123.452 30.7472 123.039 30.7867 122.58 30.7867C121.267 30.7867 120.37 30.4136 119.886 29.664C119.402 28.9143 119.158 27.8669 119.158 26.5218L119.154 26.5254Z"/>
<path fill="#0E1214" d="M126.87 26.1165V17.3823H128.352V25.8367C128.352 27.1495 128.606 28.1072 129.119 28.7098C129.628 29.316 130.414 29.6173 131.469 29.6173C132.677 29.6173 133.75 29.1761 134.686 28.2902C135.127 27.8992 135.439 27.501 135.619 27.1029C135.798 26.7012 135.888 26.1129 135.888 25.3274V17.3823H137.369V30.5105H135.913V28.3153C134.686 30.0514 133.093 30.9194 131.135 30.9194C128.291 30.9194 126.87 29.3196 126.87 26.1165Z"/>
<path fill="#0E1214" d="M141.684 26.5254V18.5803H139.639V17.3787H141.684V13.7523H143.165V17.3787H147.071V18.5803H143.165V26.9056C143.165 27.7414 143.341 28.387 143.689 28.8461C144.037 29.3053 144.578 29.5348 145.31 29.5348C145.669 29.5348 145.992 29.5061 146.282 29.4452C146.573 29.3842 146.845 29.3053 147.1 29.2013L147.38 30.3778C147.057 30.4961 146.713 30.5966 146.347 30.6719C145.981 30.7472 145.568 30.7867 145.109 30.7867C143.796 30.7867 142.9 30.4136 142.415 29.664C141.931 28.9143 141.687 27.8669 141.687 26.5218L141.684 26.5254Z"/>
<path fill="#0E1214" d="M148.966 24.0468C148.966 21.7835 149.518 20.0366 150.626 18.8099C151.731 17.5832 153.198 16.9698 155.02 16.9698C156.842 16.9698 158.309 17.5581 159.221 18.731C160.132 19.9075 160.587 21.4893 160.587 23.4837V24.3015H150.472C150.522 26.0232 150.935 27.3504 151.71 28.2866C152.484 29.2228 153.585 29.6927 155.017 29.6927C156.139 29.6927 157.018 29.4631 157.646 29.004C158.277 28.5448 158.693 27.8956 158.898 27.0634H160.329C160.107 28.2543 159.551 29.1977 158.657 29.8863C157.764 30.575 156.548 30.9194 155.017 30.9194C153.076 30.9194 151.58 30.3168 150.533 29.1044C149.486 27.8956 148.962 26.2097 148.962 24.0468H148.966ZM151.71 19.5524C151.003 20.4886 150.598 21.6902 150.497 23.1537H159.106C159.056 21.536 158.715 20.2985 158.084 19.4376C157.452 18.5767 156.423 18.1463 154.992 18.1463C153.56 18.1463 152.416 18.6162 151.71 19.5524Z"/>
<path fill="#0E1214" d="M168.837 23.9715C168.837 21.7906 169.4 20.0797 170.523 18.8386C171.645 17.5975 173.163 16.9734 175.071 16.9734C176.979 16.9734 178.504 17.5903 179.591 18.8242C180.681 20.0581 181.226 21.7584 181.226 23.9213C181.226 26.0842 180.674 27.7916 179.565 29.0434C178.457 30.2953 176.943 30.9194 175.017 30.9194C173.091 30.9194 171.538 30.3024 170.458 29.0685C169.375 27.8346 168.837 26.1344 168.837 23.9715ZM170.419 23.9464C170.419 25.7004 170.799 27.0921 171.556 28.1216C172.313 29.151 173.468 29.6675 175.017 29.6675C176.567 29.6675 177.75 29.1474 178.518 28.1108C179.286 27.0742 179.666 25.6753 179.666 23.9213C179.666 22.1673 179.282 20.8006 178.518 19.7712C177.75 18.7417 176.585 18.2252 175.017 18.2252C173.45 18.2252 172.313 18.7417 171.556 19.7712C170.799 20.8006 170.419 22.1924 170.419 23.9464Z"/>
<path fill="#0E1214" d="M185.032 18.5803H182.987V17.3787H185.032V15.9977C185.032 14.6849 185.398 13.7021 186.129 13.0493C186.861 12.3929 187.772 12.0665 188.863 12.0665C189.203 12.0665 189.541 12.088 189.871 12.131C190.204 12.1741 190.531 12.2566 190.853 12.3749L190.599 13.5515C190.308 13.4654 190.046 13.408 189.806 13.3721C189.566 13.3398 189.322 13.3219 189.067 13.3219C188.3 13.3219 187.686 13.5335 187.227 13.9604C186.768 14.3872 186.538 15.058 186.538 15.9798V17.3859H190.19V18.5875H186.538V30.5177H185.032V18.5875V18.5803Z"/>
<path fill="#0E1214" d="M198.49 12.2709H209.423V13.677H200.076V20.6249H208.864V22.0561H200.076V30.5105H198.49V12.2745V12.2709Z"/>
<path fill="#0E1214" d="M211.798 23.9715C211.798 21.7906 212.361 20.0797 213.484 18.8386C214.606 17.5975 216.124 16.9734 218.032 16.9734C219.94 16.9734 221.465 17.5903 222.551 18.8242C223.642 20.0581 224.187 21.7584 224.187 23.9213C224.187 26.0842 223.635 27.7916 222.526 29.0434C221.418 30.2953 219.904 30.9194 217.978 30.9194C216.052 30.9194 214.499 30.3024 213.419 29.0685C212.336 27.8346 211.798 26.1344 211.798 23.9715ZM213.383 23.9464C213.383 25.7004 213.763 27.0921 214.52 28.1216C215.277 29.151 216.432 29.6675 217.982 29.6675C219.531 29.6675 220.715 29.1474 221.483 28.1108C222.25 27.0742 222.63 25.6753 222.63 23.9213C222.63 22.1673 222.247 20.8006 221.483 19.7712C220.715 18.7417 219.549 18.2252 217.982 18.2252C216.414 18.2252 215.277 18.7417 214.52 19.7712C213.763 20.8006 213.383 22.1924 213.383 23.9464Z"/>
<path fill="#0E1214" d="M227.175 26.1165V17.3823H228.656V25.8367C228.656 27.1495 228.911 28.1072 229.424 28.7098C229.933 29.316 230.719 29.6173 231.773 29.6173C232.982 29.6173 234.055 29.1761 234.991 28.2902C235.432 27.8992 235.744 27.501 235.923 27.1029C236.103 26.7012 236.192 26.1129 236.192 25.3274V17.3823H237.674V30.5105H236.217V28.3153C234.991 30.0514 233.398 30.9194 231.44 30.9194C228.595 30.9194 227.175 29.3196 227.175 26.1165Z"/>
<path fill="#0E1214" d="M241.25 17.3823H242.731V19.5022C243.377 18.6341 244.116 17.9957 244.941 17.5868C245.766 17.1778 246.656 16.9734 247.61 16.9734C249.073 16.9734 250.171 17.3787 250.906 18.1858C251.638 18.9928 252.004 20.1837 252.004 21.7476V30.5105H250.522V22.031C250.522 20.7181 250.253 19.7676 249.719 19.1686C249.181 18.5732 248.377 18.2754 247.305 18.2754C246.673 18.2754 246.074 18.383 245.504 18.5947C244.934 18.8063 244.417 19.1363 243.958 19.5775C243.513 19.9864 243.201 20.3917 243.015 20.7899C242.828 21.1916 242.735 21.7727 242.735 22.5403V30.5105H241.254V17.3823H241.25Z"/>
<path fill="#0E1214" d="M254.992 23.9715C254.992 21.7906 255.515 20.0797 256.563 18.8386C257.61 17.5975 259.034 16.9734 260.842 16.9734C261.76 16.9734 262.618 17.1743 263.41 17.5724C264.203 17.9741 264.845 18.6162 265.34 19.5022V12.2745H266.821V30.5105H265.365V28.161C264.856 29.047 264.203 29.7285 263.41 30.2056C262.618 30.6827 261.685 30.9194 260.612 30.9194C259.386 30.9194 258.356 30.6253 257.521 30.037C256.685 29.4487 256.057 28.6309 255.63 27.5835C255.203 26.5362 254.992 25.3309 254.992 23.9679V23.9715ZM256.552 23.9464C256.552 25.2592 256.739 26.3353 257.115 27.1782C257.488 28.0212 258.005 28.6417 258.661 29.0434C259.318 29.4452 260.046 29.6424 260.846 29.6424C262.241 29.6424 263.349 29.1941 264.167 28.3009C264.985 27.4078 265.394 26.1595 265.394 24.5598V23.437C265.394 21.701 265.006 20.3989 264.232 19.5273C263.457 18.6592 262.388 18.2252 261.025 18.2252C259.662 18.2252 258.6 18.6951 257.782 19.6313C256.965 20.5675 256.556 22.0059 256.556 23.9464H256.552Z"/>
<path fill="#0E1214" d="M269.604 26.859C269.604 25.7686 269.884 24.9149 270.447 24.2907C271.011 23.6702 271.789 23.2218 272.786 22.9492C273.783 22.6766 274.927 22.5152 276.222 22.465L278.852 22.361V21.7978C278.852 20.485 278.583 19.556 278.048 19C277.51 18.4476 276.613 18.1714 275.354 18.1714C274.214 18.1714 273.349 18.3615 272.761 18.7453C272.173 19.1291 271.785 19.6959 271.599 20.4455L270.247 20.2913C270.483 19.1507 271.036 18.3113 271.893 17.7769C272.75 17.2424 273.923 16.9734 275.405 16.9734C277.177 16.9734 278.439 17.3823 279.2 18.2001C279.956 19.0179 280.337 20.2339 280.337 21.8516V30.5105H278.88V28.4408C278.385 29.1403 277.75 29.7106 276.979 30.1518C276.204 30.593 275.272 30.8154 274.181 30.8154C272.786 30.8154 271.674 30.4782 270.849 29.8074C270.024 29.1331 269.612 28.1503 269.612 26.8554L269.604 26.859ZM271.136 26.8052C271.136 27.6732 271.402 28.3511 271.929 28.8354C272.456 29.3196 273.267 29.5635 274.354 29.5635C275.631 29.5635 276.699 29.2299 277.56 28.5664C278.421 27.9028 278.852 26.9487 278.852 25.704V23.4801L276.348 23.5805C275.035 23.6307 273.998 23.7778 273.231 24.0145C272.463 24.2549 271.925 24.6028 271.61 25.0619C271.294 25.5211 271.136 26.1021 271.136 26.798V26.8052Z"/>
<path fill="#0E1214" d="M284.569 26.5254V18.5803H282.525V17.3787H284.569V13.7523H286.051V17.3787H289.957V18.5803H286.051V26.9056C286.051 27.7414 286.227 28.387 286.575 28.8461C286.922 29.3053 287.464 29.5348 288.196 29.5348C288.555 29.5348 288.877 29.5061 289.168 29.4452C289.458 29.3842 289.731 29.3053 289.986 29.2013L290.265 30.3778C289.943 30.4961 289.598 30.5966 289.232 30.6719C288.867 30.7472 288.454 30.7867 287.995 30.7867C286.682 30.7867 285.785 30.4136 285.301 29.664C284.817 28.9143 284.573 27.8669 284.573 26.5218L284.569 26.5254Z"/>
<path fill="#0E1214" d="M292.36 12.2709H293.892V14.7495H292.36V12.2709ZM292.385 17.3823H293.867V30.5105H292.385V17.3823Z"/>
<path fill="#0E1214" d="M296.984 23.9715C296.984 21.7906 297.547 20.0797 298.67 18.8386C299.792 17.5975 301.31 16.9734 303.218 16.9734C305.126 16.9734 306.651 17.5903 307.738 18.8242C308.828 20.0581 309.373 21.7584 309.373 23.9213C309.373 26.0842 308.821 27.7916 307.712 29.0434C306.604 30.2953 305.09 30.9194 303.164 30.9194C301.238 30.9194 299.685 30.3024 298.605 29.0685C297.522 27.8346 296.984 26.1344 296.984 23.9715ZM298.569 23.9464C298.569 25.7004 298.95 27.0921 299.706 28.1216C300.463 29.151 301.618 29.6675 303.168 29.6675C304.717 29.6675 305.901 29.1474 306.669 28.1108C307.436 27.0742 307.816 25.6753 307.816 23.9213C307.816 22.1673 307.433 20.8006 306.669 19.7712C305.901 18.7417 304.735 18.2252 303.168 18.2252C301.6 18.2252 300.463 18.7417 299.706 19.7712C298.95 20.8006 298.569 22.1924 298.569 23.9464Z"/>
<path fill="#0E1214" d="M312.437 17.3823H313.918V19.5022C314.564 18.6341 315.302 17.9957 316.127 17.5868C316.952 17.1778 317.842 16.9734 318.796 16.9734C320.26 16.9734 321.357 17.3787 322.093 18.1858C322.824 18.9928 323.19 20.1837 323.19 21.7476V30.5105H321.709V22.031C321.709 20.7181 321.44 19.7676 320.905 19.1686C320.367 18.5732 319.564 18.2754 318.491 18.2754C317.86 18.2754 317.261 18.383 316.691 18.5947C316.12 18.8063 315.604 19.1363 315.145 19.5775C314.7 19.9864 314.388 20.3917 314.201 20.7899C314.015 21.1916 313.922 21.7727 313.922 22.5403V30.5105H312.44V17.3823H312.437Z"/>
<path fill="#0E1214" d="M332.72 12.2709H334.661L341.25 28.6453L347.89 12.2709H349.755V30.5069H348.298V14.8499L341.86 30.5069H340.558L334.173 14.8248V30.5069H332.717V12.2709H332.72Z"/>
<path fill="#0E1214" d="M353.127 23.9715C353.127 21.7906 353.69 20.0797 354.813 18.8386C355.936 17.5975 357.453 16.9734 359.361 16.9734C361.269 16.9734 362.794 17.5903 363.881 18.8242C364.971 20.0581 365.516 21.7584 365.516 23.9213C365.516 26.0842 364.964 27.7916 363.855 29.0434C362.747 30.2953 361.233 30.9194 359.307 30.9194C357.381 30.9194 355.828 30.3024 354.748 29.0685C353.665 27.8346 353.127 26.1344 353.127 23.9715ZM354.712 23.9464C354.712 25.7004 355.093 27.0921 355.849 28.1216C356.606 29.151 357.761 29.6675 359.311 29.6675C360.86 29.6675 362.044 29.1474 362.812 28.1108C363.579 27.0742 363.96 25.6753 363.96 23.9213C363.96 22.1673 363.576 20.8006 362.812 19.7712C362.044 18.7417 360.878 18.2252 359.311 18.2252C357.743 18.2252 356.606 18.7417 355.849 19.7712C355.093 20.8006 354.712 22.1924 354.712 23.9464Z"/>
<path fill="#0E1214" d="M368.07 23.9715C368.07 21.7906 368.594 20.0797 369.641 18.8386C370.688 17.5975 372.112 16.9734 373.92 16.9734C374.838 16.9734 375.696 17.1743 376.488 17.5724C377.281 17.9741 377.923 18.6162 378.418 19.5022V12.2745H379.9V30.5105H378.443V28.161C377.934 29.047 377.281 29.7285 376.488 30.2056C375.696 30.6827 374.763 30.9194 373.691 30.9194C372.464 30.9194 371.434 30.6253 370.599 30.037C369.763 29.4487 369.135 28.6309 368.708 27.5835C368.281 26.5362 368.07 25.3309 368.07 23.9679V23.9715ZM369.63 23.9464C369.63 25.2592 369.817 26.3353 370.193 27.1782C370.566 28.0212 371.083 28.6417 371.739 29.0434C372.396 29.4452 373.124 29.6424 373.924 29.6424C375.319 29.6424 376.427 29.1941 377.245 28.3009C378.063 27.4078 378.472 26.1595 378.472 24.5598V23.437C378.472 21.701 378.085 20.3989 377.31 19.5273C376.535 18.6592 375.466 18.2252 374.103 18.2252C372.74 18.2252 371.678 18.6951 370.86 19.6313C370.043 20.5675 369.634 22.0059 369.634 23.9464H369.63Z"/>
<path fill="#0E1214" d="M382.963 24.0468C382.963 21.7835 383.515 20.0366 384.623 18.8099C385.728 17.5832 387.195 16.9698 389.017 16.9698C390.839 16.9698 392.307 17.5581 393.218 18.731C394.129 19.9075 394.584 21.4893 394.584 23.4837V24.3015H384.469C384.519 26.0232 384.932 27.3504 385.707 28.2866C386.481 29.2228 387.583 29.6927 389.014 29.6927C390.136 29.6927 391.015 29.4631 391.643 29.004C392.274 28.5448 392.69 27.8956 392.895 27.0634H394.326C394.104 28.2543 393.548 29.1977 392.654 29.8863C391.761 30.575 390.545 30.9194 389.014 30.9194C387.073 30.9194 385.577 30.3168 384.53 29.1044C383.483 27.8956 382.959 26.2097 382.959 24.0468H382.963ZM385.707 19.5524C385 20.4886 384.595 21.6902 384.494 23.1537H393.103C393.053 21.536 392.712 20.2985 392.081 19.4376C391.449 18.5767 390.42 18.1463 388.989 18.1463C387.557 18.1463 386.413 18.6162 385.707 19.5524Z"/>
<path fill="#0E1214" d="M397.647 12.2709H399.129V30.5069H397.647V12.2709Z"/>
<path fill="#0E1214" d="M411.264 27.0885C411.264 26.3891 411.063 25.8403 410.665 25.4421C410.263 25.044 409.46 24.7391 408.251 24.5346L406.769 24.3051C405.306 24.0683 404.215 23.6738 403.498 23.1286C402.784 22.5833 402.426 21.7584 402.426 20.65C402.426 19.5416 402.881 18.5911 403.792 17.9419C404.703 17.2962 405.901 16.9698 407.379 16.9698C408.502 16.9698 409.406 17.1061 410.087 17.3787C410.769 17.6513 411.296 18.0423 411.673 18.5552C412.046 19.0646 412.329 19.6708 412.516 20.3702L411.163 20.5998C410.891 19.764 410.489 19.1506 409.962 18.7597C409.434 18.3687 408.592 18.1714 407.433 18.1714C406.156 18.1714 405.241 18.3938 404.685 18.835C404.133 19.2798 403.857 19.8573 403.857 20.5711C403.857 21.2347 404.065 21.7512 404.484 22.117C404.901 22.4829 405.665 22.7591 406.769 22.9456L408.43 23.2003C410.03 23.4729 411.16 23.8997 411.816 24.4772C412.473 25.0547 412.799 25.9264 412.799 27.0814C412.799 28.2364 412.369 29.169 411.508 29.8648C410.647 30.5643 409.373 30.9122 407.688 30.9122C406.102 30.9122 404.8 30.593 403.778 29.9545C402.756 29.316 402.185 28.283 402.067 26.8518H403.498C403.652 27.8382 404.076 28.5592 404.775 29.0111C405.474 29.4631 406.436 29.6891 407.663 29.6891C408.889 29.6891 409.836 29.4631 410.41 29.0111C410.98 28.5592 411.267 27.9171 411.267 27.0814L411.264 27.0885Z"/>
<path fill="#0E1214" d="M72.0578 44.6968H74.1848L76.8607 52.1505L79.576 44.6968H81.6493V54.2524H80.0172V47.4013L77.5028 54.2524H76.1505L73.6755 47.4552V54.2524H72.0542V44.6968H72.0578Z"/>
<path fill="#0E1214" d="M83.2344 50.7838C83.2344 50.0162 83.3779 49.3562 83.6612 48.8038C83.9482 48.2515 84.3499 47.8246 84.8736 47.5269C85.3973 47.2292 86.0142 47.0785 86.728 47.0785C87.8149 47.0785 88.665 47.4014 89.2712 48.0506C89.8774 48.6962 90.1823 49.593 90.1823 50.7336C90.1823 51.8743 89.8738 52.8069 89.2533 53.4704C88.6327 54.134 87.779 54.4676 86.6886 54.4676C85.5982 54.4676 84.7409 54.1448 84.1383 53.4956C83.5357 52.8499 83.2344 51.946 83.2344 50.7838ZM84.9741 50.7587C84.9741 51.4618 85.1103 52.0285 85.3829 52.4589C85.6556 52.8858 86.0932 53.101 86.703 53.101C87.3127 53.101 87.7503 52.8858 88.0265 52.4589C88.3027 52.0321 88.4426 51.4653 88.4426 50.7587C88.4426 50.0521 88.3027 49.4925 88.0265 49.0729C87.7503 48.6532 87.3091 48.4452 86.703 48.4452C86.0968 48.4452 85.6663 48.6532 85.3901 49.0729C85.1139 49.4925 84.9741 50.0557 84.9741 50.7587Z"/>
<path fill="#0E1214" d="M91.61 44.6968H93.2959V48.1905C93.6438 47.7816 94.0061 47.491 94.3791 47.326C94.7522 47.161 95.1432 47.0785 95.5449 47.0785C96.3125 47.0785 96.8936 47.2937 97.2846 47.7278C97.6755 48.1618 97.8728 48.7823 97.8728 49.5966V54.2524H96.187V49.9158C96.187 49.3993 96.0901 49.0298 95.9 48.811C95.7063 48.5922 95.4158 48.4846 95.0212 48.4846C94.7988 48.4846 94.5836 48.5241 94.372 48.6066C94.1603 48.6855 93.9738 48.811 93.8016 48.9796C93.6331 49.1303 93.5039 49.2953 93.4214 49.4674C93.3353 49.6396 93.2923 49.8727 93.2923 50.1561V54.2524H91.6064V44.6968H91.61Z"/>
<path fill="#0E1214" d="M99.0529 52.3226C99.0529 51.8671 99.1497 51.4869 99.3399 51.1856C99.5336 50.8807 99.7918 50.6439 100.122 50.4682C100.452 50.2924 100.828 50.1705 101.252 50.0951C101.675 50.0198 102.12 49.9732 102.582 49.9553L103.651 49.9158V49.6611C103.651 49.1805 103.547 48.829 103.343 48.6102C103.138 48.3914 102.808 48.2837 102.353 48.2837C101.897 48.2837 101.578 48.3627 101.363 48.5169C101.148 48.6747 101.008 48.8935 100.936 49.1805L99.4223 49.0478C99.5479 48.3698 99.86 47.8712 100.359 47.5556C100.857 47.2399 101.539 47.0821 102.407 47.0821C103.44 47.0821 104.179 47.3153 104.616 47.7852C105.054 48.255 105.273 48.9294 105.273 49.8118V54.256H103.705V53.3987C103.436 53.7036 103.12 53.9511 102.755 54.1412C102.389 54.3313 101.948 54.4282 101.431 54.4282C100.728 54.4282 100.154 54.2488 99.7129 53.8865C99.2717 53.5243 99.0493 53.0041 99.0493 52.3262L99.0529 52.3226ZM100.685 52.2437C100.685 52.5307 100.775 52.7602 100.954 52.9324C101.133 53.1082 101.424 53.1943 101.826 53.1943C102.378 53.1943 102.823 53.0508 103.156 52.7674C103.49 52.4805 103.659 52.0787 103.659 51.5622V50.9739L102.669 51.0134C101.912 51.0385 101.392 51.1569 101.108 51.3613C100.828 51.5658 100.685 51.8599 100.685 52.2437Z"/>
<path fill="#0E1214" d="M106.894 47.2902H108.54V48.2407C108.835 47.8497 109.161 47.5556 109.516 47.3655C109.871 47.1754 110.244 47.0785 110.628 47.0785C111.109 47.0785 111.51 47.1826 111.833 47.3942C112.152 47.6022 112.396 47.8999 112.554 48.2837C113.153 47.4803 113.91 47.0785 114.828 47.0785C115.513 47.0785 116.044 47.2722 116.421 47.6596C116.798 48.047 116.984 48.6532 116.984 49.4746V54.2524H115.298V49.7687C115.298 49.2773 115.212 48.9401 115.044 48.7572C114.875 48.5743 114.627 48.4846 114.308 48.4846C114.14 48.4846 113.96 48.5169 113.774 48.5779C113.587 48.6388 113.408 48.7465 113.239 48.9007C113.107 49.0262 112.995 49.1733 112.913 49.3419C112.827 49.5105 112.787 49.7042 112.787 49.9158V54.2524H111.102V49.7831C111.102 49.3096 111.015 48.976 110.847 48.7787C110.678 48.5815 110.438 48.4846 110.122 48.4846C109.738 48.4846 109.383 48.6424 109.053 48.9545C108.939 49.0693 108.831 49.2163 108.734 49.3957C108.634 49.575 108.587 49.8046 108.587 50.0916V54.2524H106.901V47.2937L106.894 47.2902Z"/>
<path fill="#0E1214" d="M118.365 50.8233C118.365 50.0198 118.508 49.3383 118.795 48.7823C119.079 48.2263 119.477 47.7995 119.986 47.5125C120.496 47.222 121.084 47.0785 121.751 47.0785C122.476 47.0785 123.071 47.222 123.544 47.5125C124.018 47.8031 124.369 48.2048 124.603 48.7249C124.836 49.2415 124.951 49.8441 124.951 50.5328V51.1605H120.026C120.062 51.8312 120.223 52.337 120.506 52.6849C120.79 53.0328 121.206 53.2086 121.751 53.2086C122.224 53.2086 122.576 53.1189 122.809 52.9396C123.042 52.7602 123.197 52.5127 123.275 52.1899H124.854C124.739 52.9037 124.427 53.4597 123.918 53.8614C123.408 54.2632 122.691 54.464 121.762 54.464C120.671 54.464 119.836 54.1448 119.244 53.5063C118.655 52.8678 118.361 51.9747 118.361 50.8233H118.365ZM122.953 48.7644C122.73 48.4523 122.328 48.2945 121.747 48.2945C121.166 48.2945 120.754 48.4631 120.503 48.7967C120.252 49.1303 120.097 49.5714 120.033 50.1167H123.326C123.297 49.5284 123.175 49.0765 122.953 48.7644Z"/>
<path fill="#0E1214" d="M126.138 50.8233C126.138 49.6647 126.407 48.75 126.948 48.0793C127.487 47.4085 128.225 47.0749 129.162 47.0749C129.528 47.0749 129.886 47.1503 130.238 47.2973C130.589 47.4444 130.905 47.6955 131.181 48.0542V44.6968H132.867V54.2524H131.235V53.3413C130.959 53.7072 130.643 53.987 130.284 54.1771C129.926 54.3672 129.51 54.464 129.025 54.464C128.383 54.464 127.849 54.3062 127.418 53.9941C126.988 53.6821 126.669 53.2516 126.453 52.7028C126.238 52.154 126.134 51.5263 126.134 50.8233H126.138ZM127.867 50.7731C127.867 51.3434 127.942 51.7989 128.093 52.1397C128.243 52.4805 128.444 52.7208 128.688 52.8678C128.932 53.0149 129.194 53.0902 129.47 53.0902C130.015 53.0902 130.439 52.9037 130.74 52.5343C131.045 52.1648 131.195 51.6447 131.195 50.9739V50.6009C131.195 49.862 131.045 49.3132 130.747 48.9617C130.449 48.6101 130.044 48.4344 129.535 48.4344C129.025 48.4344 128.642 48.6137 128.329 48.976C128.017 49.3383 127.86 49.9373 127.86 50.7767L127.867 50.7731Z"/>
<path fill="#0E1214" d="M139.108 54.2524H137.462V44.6968H139.148V48.108C139.417 47.778 139.729 47.5233 140.084 47.344C140.439 47.1646 140.848 47.0749 141.3 47.0749C142.265 47.0749 142.986 47.4049 143.466 48.0649C143.947 48.7249 144.187 49.6037 144.187 50.7013C144.187 51.4689 144.065 52.1361 143.818 52.7028C143.574 53.2696 143.226 53.7036 142.781 54.0085C142.337 54.3134 141.799 54.464 141.174 54.464C140.783 54.464 140.407 54.3851 140.045 54.2237C139.682 54.0623 139.37 53.8004 139.101 53.4346V54.2524H139.108ZM139.133 50.5435V50.9309C139.133 51.6806 139.284 52.2294 139.589 52.5773C139.894 52.9252 140.299 53.101 140.805 53.101C141.311 53.101 141.695 52.9216 142.003 52.5594C142.311 52.1971 142.466 51.5945 142.466 50.7444C142.466 50.1741 142.39 49.7221 142.243 49.3849C142.096 49.0513 141.903 48.811 141.662 48.664C141.422 48.5169 141.156 48.4416 140.873 48.4416C140.357 48.4416 139.937 48.6245 139.614 48.9904C139.295 49.3562 139.133 49.8727 139.133 50.5435Z"/>
<path fill="#0E1214" d="M145.636 44.6681H147.336V46.1818H145.636V44.6681ZM145.651 47.2902H147.336V54.2488H145.651V47.2902Z"/>
<path fill="#0E1214" d="M149.008 47.2902H150.654V48.255C151.002 47.8174 151.368 47.5126 151.752 47.3368C152.136 47.1646 152.534 47.0749 152.943 47.0749C153.71 47.0749 154.292 47.2902 154.682 47.7242C155.073 48.1582 155.271 48.7787 155.271 49.593V54.2488H153.585V49.9122C153.585 49.3957 153.488 49.0262 153.298 48.8074C153.104 48.5886 152.814 48.481 152.419 48.481C152.197 48.481 151.982 48.5205 151.77 48.603C151.558 48.6819 151.372 48.8074 151.2 48.976C151.031 49.1267 150.902 49.2917 150.819 49.4638C150.733 49.636 150.69 49.8692 150.69 50.1525V54.2488H149.004V47.2902H149.008Z"/>
<path fill="#0E1214" d="M159.421 52.9252L164.454 46.1925H159.515V44.6932H166.541V46.0311L161.538 52.7351H166.757L166.541 54.2488H159.421V52.9252Z"/>
<path fill="#0E1214" d="M167.506 52.3226C167.506 51.8671 167.603 51.4869 167.793 51.1856C167.983 50.8807 168.245 50.6439 168.575 50.4682C168.905 50.2924 169.282 50.1705 169.705 50.0951C170.128 50.0198 170.573 49.9732 171.036 49.9553L172.104 49.9158V49.6611C172.104 49.1805 172 48.829 171.796 48.6102C171.592 48.3914 171.262 48.2837 170.806 48.2837C170.35 48.2837 170.031 48.3627 169.816 48.5169C169.601 48.6747 169.457 48.8935 169.386 49.1805L167.875 49.0478C168.001 48.3698 168.313 47.8712 168.812 47.5556C169.31 47.2399 169.992 47.0821 170.86 47.0821C171.893 47.0821 172.632 47.3153 173.069 47.7852C173.507 48.255 173.726 48.9294 173.726 49.8118V54.256H172.158V53.3987C171.889 53.7036 171.574 53.9511 171.208 54.1412C170.842 54.3313 170.401 54.4282 169.884 54.4282C169.181 54.4282 168.607 54.2488 168.166 53.8865C167.725 53.5243 167.502 53.0041 167.502 52.3262L167.506 52.3226ZM169.138 52.2437C169.138 52.5307 169.228 52.7602 169.407 52.9324C169.586 53.1082 169.873 53.1943 170.275 53.1943C170.828 53.1943 171.272 53.0508 171.606 52.7674C171.939 52.4805 172.108 52.0787 172.108 51.5622V50.9739L171.118 51.0134C170.358 51.0385 169.841 51.1569 169.558 51.3613C169.278 51.5658 169.135 51.8599 169.135 52.2437H169.138Z"/>
<path fill="#0E1214" d="M175.347 55.4971C175.641 55.5867 175.899 55.6298 176.122 55.6298C176.391 55.6298 176.599 55.5473 176.749 55.3823C176.9 55.2173 177.054 54.9303 177.205 54.5178L177.431 53.8901L174.525 47.2937H176.387L178.234 52.1397L179.906 47.2937H181.699L178.74 54.6685C178.525 55.2029 178.32 55.6441 178.12 55.9849C177.919 56.3292 177.685 56.5839 177.416 56.7489C177.147 56.9139 176.807 56.9964 176.387 56.9964C175.931 56.9964 175.49 56.9247 175.063 56.7812L175.343 55.4971H175.347Z"/>
<path fill="#0E1214" d="M182.188 50.8233C182.188 50.0198 182.331 49.3383 182.614 48.7823C182.901 48.2263 183.296 47.7995 183.805 47.5125C184.315 47.222 184.903 47.0785 185.574 47.0785C186.295 47.0785 186.894 47.222 187.367 47.5125C187.841 47.8031 188.192 48.2048 188.425 48.7249C188.658 49.2415 188.773 49.8441 188.773 50.5328V51.1605H183.848C183.884 51.8312 184.046 52.337 184.329 52.6849C184.616 53.0328 185.028 53.2086 185.574 53.2086C186.047 53.2086 186.399 53.1189 186.632 52.9396C186.865 52.7602 187.019 52.5127 187.102 52.1899H188.68C188.565 52.9037 188.249 53.4597 187.744 53.8614C187.234 54.2632 186.517 54.464 185.588 54.464C184.498 54.464 183.662 54.1448 183.073 53.5063C182.485 52.8678 182.191 51.9747 182.191 50.8233H182.188ZM186.775 48.7644C186.553 48.4523 186.151 48.2945 185.57 48.2945C184.989 48.2945 184.576 48.4631 184.325 48.7967C184.074 49.1303 183.92 49.5714 183.859 50.1167H187.152C187.127 49.5284 187.001 49.0765 186.779 48.7644H186.775Z"/>
<path fill="#0E1214" d="M189.96 50.8233C189.96 49.6647 190.229 48.75 190.771 48.0793C191.309 47.4085 192.048 47.0749 192.988 47.0749C193.353 47.0749 193.712 47.1503 194.064 47.2973C194.415 47.4444 194.731 47.6955 195.007 48.0542V44.6968H196.693V54.2524H195.061V53.3413C194.785 53.7072 194.465 53.987 194.11 54.1771C193.755 54.3672 193.335 54.464 192.851 54.464C192.209 54.464 191.675 54.3062 191.244 53.9941C190.817 53.6821 190.495 53.2516 190.279 52.7028C190.064 52.154 189.957 51.5263 189.957 50.8233H189.96ZM191.689 50.7731C191.689 51.3434 191.764 51.7989 191.915 52.1397C192.066 52.4805 192.267 52.7208 192.51 52.8678C192.758 53.0149 193.016 53.0902 193.292 53.0902C193.838 53.0902 194.261 52.9037 194.562 52.5343C194.867 52.1648 195.018 51.6447 195.018 50.9739V50.6009C195.018 49.862 194.867 49.3132 194.569 48.9617C194.272 48.6101 193.866 48.4344 193.357 48.4344C192.848 48.4344 192.464 48.6137 192.152 48.976C191.84 49.3383 191.685 49.9373 191.685 50.7767L191.689 50.7731Z"/>
<path fill="#0E1214" d="M201.338 50.357V44.6968H203.131V50.4395C203.131 51.2788 203.289 51.9065 203.605 52.3262C203.92 52.7459 204.433 52.9539 205.136 52.9539C205.84 52.9539 206.385 52.7459 206.69 52.3262C206.991 51.9065 207.145 51.2788 207.145 50.4395V44.6968H208.924V50.3964C208.924 51.8061 208.594 52.8427 207.934 53.5027C207.274 54.1627 206.338 54.4927 205.126 54.4927C203.913 54.4927 202.966 54.1591 202.314 53.4956C201.661 52.832 201.338 51.7846 201.338 50.357Z"/>
<path fill="#0E1214" d="M210.639 47.2902H212.285V48.255C212.633 47.8174 212.999 47.5126 213.383 47.3368C213.766 47.1646 214.165 47.0749 214.574 47.0749C215.341 47.0749 215.922 47.2902 216.313 47.7242C216.704 48.1582 216.901 48.7787 216.901 49.593V54.2488H215.216V49.9122C215.216 49.3957 215.119 49.0262 214.929 48.8074C214.735 48.5886 214.444 48.481 214.053 48.481C213.831 48.481 213.612 48.5205 213.404 48.603C213.196 48.6819 213.006 48.8074 212.834 48.976C212.665 49.1267 212.536 49.2917 212.454 49.4638C212.371 49.636 212.328 49.8692 212.328 50.1525V54.2488H210.642V47.2902H210.639Z"/>
<path fill="#0E1214" d="M218.495 44.6681H220.195V46.1818H218.495V44.6681ZM218.505 47.2902H220.191V54.2488H218.505V47.2902Z"/>
<path fill="#0E1214" d="M224.718 52.5378L226.472 47.2902H228.251L225.586 54.2488H223.792L221.142 47.2902H223.003L224.718 52.5378Z"/>
<path fill="#0E1214" d="M228.717 50.8233C228.717 50.0198 228.86 49.3383 229.147 48.7823C229.431 48.2263 229.829 47.7995 230.338 47.5125C230.848 47.222 231.436 47.0785 232.103 47.0785C232.828 47.0785 233.423 47.222 233.896 47.5125C234.37 47.8031 234.722 48.2048 234.955 48.7249C235.188 49.2415 235.303 49.8441 235.303 50.5328V51.1605H230.378C230.414 51.8312 230.575 52.337 230.858 52.6849C231.142 53.0328 231.558 53.2086 232.103 53.2086C232.576 53.2086 232.928 53.1189 233.161 52.9396C233.394 52.7602 233.549 52.5127 233.627 52.1899H235.206C235.091 52.9037 234.779 53.4597 234.27 53.8614C233.76 54.2632 233.043 54.464 232.114 54.464C231.023 54.464 230.188 54.1448 229.596 53.5063C229.007 52.8678 228.713 51.9747 228.713 50.8233H228.717ZM233.308 48.7644C233.086 48.4523 232.684 48.2945 232.103 48.2945C231.522 48.2945 231.109 48.4631 230.858 48.7967C230.607 49.1303 230.453 49.5714 230.388 50.1167H233.681C233.653 49.5284 233.531 49.0765 233.308 48.7644Z"/>
<path fill="#0E1214" d="M236.72 47.2902H238.366V48.2658C238.883 47.5341 239.55 47.1682 240.36 47.1682C240.486 47.1682 240.604 47.1718 240.716 47.1825C240.827 47.1897 240.927 47.2041 241.017 47.222L240.816 48.707C240.619 48.6532 240.411 48.6281 240.188 48.6281C239.966 48.6281 239.754 48.6604 239.553 48.7285C239.353 48.7967 239.162 48.9043 238.983 49.0549C238.804 49.1984 238.664 49.3706 238.56 49.5786C238.456 49.7831 238.406 50.0306 238.406 50.3139V54.2488H236.72V47.2902Z"/>
<path fill="#0E1214" d="M246.128 52.337C246.128 52.1038 246.06 51.9101 245.927 51.7487C245.794 51.5873 245.518 51.4761 245.099 51.4151L244.27 51.2824C243.431 51.1497 242.803 50.9273 242.39 50.6117C241.974 50.2996 241.766 49.8225 241.766 49.1805C241.766 48.5384 242.035 48.004 242.577 47.6345C243.115 47.2651 243.818 47.0785 244.686 47.0785C245.346 47.0785 245.88 47.161 246.286 47.326C246.691 47.491 247.003 47.7206 247.222 48.0147C247.441 48.3088 247.591 48.6532 247.67 49.0442L246.117 49.245C246.017 48.9222 245.87 48.6819 245.676 48.5169C245.479 48.3519 245.152 48.2694 244.7 48.2694C244.202 48.2694 243.854 48.3555 243.657 48.5241C243.459 48.6926 243.362 48.8899 243.362 49.1123C243.362 49.3347 243.438 49.5284 243.585 49.6683C243.732 49.8082 244.022 49.9122 244.46 49.9839L245.382 50.1454C246.257 50.3068 246.878 50.5507 247.244 50.8735C247.609 51.1999 247.792 51.6842 247.792 52.3262C247.792 52.9683 247.545 53.4848 247.05 53.8794C246.555 54.2703 245.816 54.4676 244.837 54.4676C243.918 54.4676 243.165 54.2883 242.573 53.926C241.985 53.5637 241.662 52.9754 241.608 52.154H243.215C243.287 52.5486 243.456 52.8248 243.718 52.9826C243.979 53.144 244.345 53.223 244.808 53.223C245.271 53.223 245.619 53.144 245.823 52.9826C246.028 52.8212 246.132 52.6096 246.132 52.3406L246.128 52.337Z"/>
<path fill="#0E1214" d="M249.102 44.6681H250.802V46.1818H249.102V44.6681ZM249.112 47.2902H250.798V54.2488H249.112V47.2902Z"/>
<path fill="#0E1214" d="M252.954 51.842V48.6173H251.856V47.2937H252.954V45.4214H254.64V47.2937H256.365V48.6173H254.64V52.0177C254.64 52.3298 254.712 52.5737 254.855 52.7531C254.999 52.9324 255.217 53.0221 255.512 53.0221C255.68 53.0221 255.831 53.0077 255.967 52.9826C256.103 52.9575 256.225 52.9252 256.34 52.8894L256.595 54.1484C256.372 54.2201 256.143 54.2775 255.906 54.3205C255.669 54.3636 255.4 54.3887 255.095 54.3887C254.543 54.3887 254.109 54.2883 253.797 54.0874C253.485 53.8865 253.266 53.596 253.141 53.2158C253.015 52.8356 252.954 52.38 252.954 51.8456V51.842Z"/>
<path fill="#0E1214" d="M257.864 55.4971C258.159 55.5867 258.417 55.6298 258.639 55.6298C258.908 55.6298 259.116 55.5473 259.267 55.3823C259.418 55.2173 259.568 54.9303 259.722 54.5178L259.948 53.8901L257.043 47.2937H258.905L260.752 52.1397L262.423 47.2937H264.217L261.258 54.6685C261.042 55.2029 260.834 55.6441 260.637 55.9849C260.436 56.3292 260.203 56.5839 259.934 56.7489C259.665 56.9139 259.321 56.9964 258.905 56.9964C258.449 56.9964 258.008 56.9247 257.581 56.7812L257.861 55.4971H257.864Z"/>
<path fill="#0E1214" d="M267.861 50.7838C267.861 50.0162 268.005 49.3562 268.292 48.8038C268.575 48.2515 268.98 47.8246 269.504 47.5269C270.028 47.2292 270.645 47.0785 271.359 47.0785C272.449 47.0785 273.296 47.4014 273.902 48.0506C274.508 48.6962 274.813 49.593 274.813 50.7336C274.813 51.8743 274.501 52.8069 273.884 53.4704C273.263 54.134 272.41 54.4676 271.323 54.4676C270.236 54.4676 269.375 54.1448 268.772 53.4956C268.17 52.8499 267.869 51.946 267.869 50.7838H267.861ZM269.601 50.7587C269.601 51.4618 269.737 52.0285 270.01 52.4589C270.283 52.8858 270.72 53.101 271.33 53.101C271.94 53.101 272.377 52.8858 272.653 52.4589C272.93 52.0321 273.07 51.4653 273.07 50.7587C273.07 50.0521 272.933 49.4925 272.653 49.0729C272.377 48.6532 271.936 48.4452 271.33 48.4452C270.724 48.4452 270.297 48.6532 270.017 49.0729C269.741 49.4925 269.601 50.0557 269.601 50.7587Z"/>
<path fill="#0E1214" d="M276.735 48.7357H275.624V47.4121H276.735V46.9566C276.735 46.1639 276.958 45.5684 277.399 45.1775C277.84 44.7865 278.4 44.5892 279.078 44.5892C279.533 44.5892 280.003 44.6573 280.484 44.7901L280.244 46.0204C280.1 45.9773 279.964 45.9451 279.835 45.9343C279.705 45.9199 279.58 45.9128 279.454 45.9128C279.149 45.9128 278.902 45.9881 278.712 46.1388C278.522 46.2894 278.425 46.5548 278.425 46.9279V47.4085H280.086V48.7321H278.425V54.2452H276.739V48.7321L276.735 48.7357Z"/>
<path fill="#0E1214" d="M285.233 54.2524H283.425L286.958 44.6968H289.007L292.515 54.2524H290.653L289.824 51.9388H286.051L285.233 54.2524ZM287.938 46.354L286.517 50.461H289.369L287.938 46.354Z"/>
<path fill="#0E1214" d="M293.529 47.2902H295.176V48.2658C295.692 47.5341 296.356 47.1682 297.17 47.1682C297.296 47.1682 297.414 47.1718 297.525 47.1825C297.636 47.1897 297.737 47.2041 297.826 47.222L297.626 48.707C297.428 48.6532 297.22 48.6281 296.998 48.6281C296.775 48.6281 296.564 48.6604 296.363 48.7285C296.162 48.7967 295.972 48.9043 295.796 49.0549C295.617 49.1984 295.477 49.3706 295.373 49.5786C295.269 49.7831 295.219 50.0306 295.219 50.3139V54.2488H293.533V47.2902H293.529Z"/>
<path fill="#0E1214" d="M299.566 51.842V48.6173H298.469V47.2937H299.566V45.4214H301.252V47.2937H302.978V48.6173H301.252V52.0177C301.252 52.3298 301.324 52.5737 301.467 52.7531C301.611 52.9324 301.83 53.0221 302.124 53.0221C302.292 53.0221 302.443 53.0077 302.579 52.9826C302.716 52.9575 302.838 52.9252 302.952 52.8894L303.207 54.1484C302.985 54.2201 302.755 54.2775 302.518 54.3205C302.282 54.3636 302.013 54.3887 301.708 54.3887C301.155 54.3887 300.721 54.2883 300.409 54.0874C300.097 53.8865 299.878 53.596 299.753 53.2158C299.627 52.8356 299.566 52.38 299.566 51.8456V51.842Z"/>
<path fill="#0E1214" d="M304.183 44.6681H305.883V46.1818H304.183V44.6681ZM304.197 47.2902H305.883V54.2488H304.197V47.2902Z"/>
<path fill="#0E1214" d="M308.049 48.7357H306.938V47.4121H308.049V46.9566C308.049 46.1639 308.272 45.5684 308.713 45.1775C309.154 44.7865 309.714 44.5892 310.392 44.5892C310.847 44.5892 311.317 44.6573 311.798 44.7901L311.557 46.0204C311.414 45.9773 311.278 45.9451 311.149 45.9343C311.019 45.9199 310.894 45.9128 310.768 45.9128C310.463 45.9128 310.216 45.9881 310.026 46.1388C309.836 46.2894 309.739 46.5548 309.739 46.9279V47.4085H311.4V48.7321H309.739V54.2452H308.053V48.7321L308.049 48.7357ZM312.522 44.6681H314.223V46.1818H312.522V44.6681ZM312.533 47.2902H314.219V54.2488H312.533V47.2902Z"/>
<path fill="#0E1214" d="M315.665 50.7982C315.665 50.0413 315.805 49.3813 316.081 48.8254C316.357 48.2694 316.752 47.839 317.257 47.5341C317.767 47.2292 318.373 47.0785 319.076 47.0785C319.951 47.0785 320.636 47.2937 321.131 47.7206C321.626 48.1474 321.931 48.7465 322.046 49.5141L320.428 49.7293C320.356 49.3383 320.22 49.0262 320.019 48.7931C319.818 48.5599 319.499 48.4452 319.062 48.4452C318.463 48.4452 318.036 48.6604 317.785 49.0944C317.53 49.5284 317.404 50.0844 317.404 50.7623C317.404 51.4402 317.53 51.9998 317.777 52.441C318.029 52.8822 318.455 53.1046 319.062 53.1046C319.506 53.1046 319.843 52.9826 320.073 52.7423C320.299 52.502 320.446 52.1756 320.507 51.7667H322.139C322.032 52.6132 321.716 53.2768 321.196 53.7538C320.676 54.2309 319.951 54.4712 319.022 54.4712C317.942 54.4712 317.114 54.1448 316.533 53.4884C315.952 52.832 315.661 51.9388 315.661 50.8054L315.665 50.7982Z"/>
<path fill="#0E1214" d="M323.47 44.6681H325.17V46.1818H323.47V44.6681ZM323.48 47.2902H325.166V54.2488H323.48V47.2902Z"/>
<path fill="#0E1214" d="M326.425 52.3226C326.425 51.8671 326.522 51.4869 326.712 51.1856C326.903 50.8807 327.164 50.6439 327.494 50.4682C327.824 50.2924 328.201 50.1705 328.624 50.0951C329.048 50.0198 329.492 49.9732 329.955 49.9553L331.024 49.9158V49.6611C331.024 49.1805 330.92 48.829 330.715 48.6102C330.511 48.3914 330.181 48.2837 329.725 48.2837C329.27 48.2837 328.951 48.3627 328.735 48.5169C328.52 48.6747 328.377 48.8935 328.305 49.1805L326.795 49.0478C326.92 48.3698 327.233 47.8712 327.731 47.5556C328.23 47.2399 328.911 47.0821 329.779 47.0821C330.812 47.0821 331.551 47.3153 331.989 47.7852C332.426 48.255 332.645 48.9294 332.645 49.8118V54.256H331.078V53.3987C330.809 53.7036 330.493 53.9511 330.127 54.1412C329.761 54.3313 329.32 54.4282 328.804 54.4282C328.101 54.4282 327.527 54.2488 327.085 53.8865C326.644 53.5243 326.422 53.0041 326.422 52.3262L326.425 52.3226ZM328.057 52.2437C328.057 52.5307 328.147 52.7602 328.327 52.9324C328.506 53.1082 328.793 53.1943 329.195 53.1943C329.747 53.1943 330.192 53.0508 330.525 52.7674C330.859 52.4805 331.027 52.0787 331.027 51.5622V50.9739L330.037 51.0134C329.277 51.0385 328.761 51.1569 328.477 51.3613C328.197 51.5658 328.054 51.8599 328.054 52.2437H328.057Z"/>
<path fill="#0E1214" d="M334.28 44.6968H335.966V54.2524H334.28V44.6968Z"/>
<path fill="#0E1214" d="M340.719 44.6968H342.513V54.2524H340.719V44.6968Z"/>
<path fill="#0E1214" d="M344.317 47.2902H345.963V48.255C346.311 47.8174 346.677 47.5126 347.061 47.3368C347.445 47.1646 347.843 47.0749 348.252 47.0749C349.019 47.0749 349.6 47.2902 349.991 47.7242C350.382 48.1582 350.58 48.7787 350.58 49.593V54.2488H348.894V49.9122C348.894 49.3957 348.797 49.0262 348.607 48.8074C348.413 48.5886 348.123 48.481 347.732 48.481C347.509 48.481 347.29 48.5205 347.082 48.603C346.874 48.6819 346.684 48.8074 346.512 48.976C346.344 49.1267 346.214 49.2917 346.132 49.4638C346.049 49.636 346.006 49.8692 346.006 50.1525V54.2488H344.32V47.2902H344.317Z"/>
<path fill="#0E1214" d="M352.657 51.842V48.6173H351.559V47.2937H352.657V45.4214H354.343V47.2937H356.068V48.6173H354.343V52.0177C354.343 52.3298 354.414 52.5737 354.558 52.7531C354.701 52.9324 354.92 53.0221 355.214 53.0221C355.383 53.0221 355.533 53.0077 355.67 52.9826C355.806 52.9575 355.928 52.9252 356.043 52.8894L356.297 54.1484C356.075 54.2201 355.845 54.2775 355.609 54.3205C355.372 54.3636 355.103 54.3887 354.798 54.3887C354.246 54.3887 353.812 54.2883 353.5 54.0874C353.188 53.8865 352.969 53.596 352.843 53.2158C352.718 52.8356 352.657 52.38 352.657 51.8456V51.842Z"/>
<path fill="#0E1214" d="M357.047 50.8233C357.047 50.0198 357.19 49.3383 357.474 48.7823C357.761 48.2263 358.155 47.7995 358.665 47.5125C359.174 47.222 359.762 47.0785 360.433 47.0785C361.154 47.0785 361.753 47.222 362.226 47.5125C362.7 47.8031 363.051 48.2048 363.285 48.7249C363.518 49.2415 363.632 49.8441 363.632 50.5328V51.1605H358.708C358.743 51.8312 358.905 52.337 359.188 52.6849C359.475 53.0328 359.888 53.2086 360.433 53.2086C360.906 53.2086 361.258 53.1189 361.491 52.9396C361.724 52.7602 361.878 52.5127 361.961 52.1899H363.539C363.424 52.9037 363.109 53.4597 362.603 53.8614C362.094 54.2632 361.376 54.464 360.447 54.464C359.357 54.464 358.521 54.1448 357.933 53.5063C357.345 52.8678 357.05 51.9747 357.05 50.8233H357.047ZM361.635 48.7644C361.412 48.4523 361.01 48.2945 360.429 48.2945C359.848 48.2945 359.436 48.4631 359.185 48.7967C358.934 49.1303 358.779 49.5714 358.718 50.1167H362.011C361.986 49.5284 361.861 49.0765 361.638 48.7644H361.635Z"/>
<path fill="#0E1214" d="M365.06 44.6968H366.746V54.2524H365.06V44.6968Z"/>
<path fill="#0E1214" d="M368.436 44.6968H370.121V54.2524H368.436V44.6968Z"/>
<path fill="#0E1214" d="M371.793 44.6681H373.493V46.1818H371.793V44.6681ZM371.807 47.2902H373.493V54.2488H371.807V47.2902Z"/>
<path fill="#0E1214" d="M379.981 53.6498V52.9683C379.723 53.309 379.415 53.5709 379.06 53.7574C378.704 53.9439 378.288 54.0372 377.815 54.0372C377.173 54.0372 376.638 53.8901 376.208 53.596C375.777 53.3019 375.462 52.893 375.25 52.3728C375.039 51.8527 374.935 51.2537 374.935 50.5866C374.935 49.8835 375.057 49.2666 375.297 48.7393C375.537 48.212 375.882 47.8067 376.333 47.5161C376.785 47.2256 377.316 47.0821 377.933 47.0821C378.328 47.0821 378.701 47.1574 379.056 47.3045C379.411 47.4516 379.734 47.717 380.021 48.1008V47.2973H381.667V53.2409C381.667 54.0264 381.567 54.7008 381.366 55.2603C381.165 55.8235 380.828 56.2539 380.354 56.5516C379.881 56.8493 379.225 57 378.389 57C377.424 57 376.674 56.8206 376.133 56.4584C375.591 56.0961 375.283 55.5222 375.204 54.7402H376.836C376.907 55.0953 377.062 55.3536 377.298 55.5114C377.535 55.6692 377.894 55.7446 378.374 55.7446C378.981 55.7446 379.4 55.5688 379.633 55.2209C379.867 54.8729 379.981 54.3492 379.981 53.6534V53.6498ZM379.594 48.9904C379.325 48.6173 378.905 48.4272 378.335 48.4272C377.854 48.4272 377.453 48.5958 377.137 48.9366C376.821 49.2773 376.663 49.8154 376.663 50.5543C376.663 51.0636 376.739 51.4725 376.889 51.7774C377.04 52.0859 377.241 52.3083 377.485 52.4482C377.732 52.5881 377.994 52.6562 378.281 52.6562C378.862 52.6562 379.293 52.4697 379.572 52.0931C379.852 51.72 379.992 51.2466 379.992 50.6726V50.4574C379.992 49.8512 379.859 49.3598 379.59 48.9868L379.594 48.9904Z"/>
<path fill="#0E1214" d="M383.088 50.8233C383.088 50.0198 383.231 49.3383 383.515 48.7823C383.802 48.2263 384.196 47.7995 384.706 47.5125C385.215 47.222 385.803 47.0785 386.474 47.0785C387.195 47.0785 387.794 47.222 388.267 47.5125C388.741 47.8031 389.092 48.2048 389.326 48.7249C389.559 49.2415 389.673 49.8441 389.673 50.5328V51.1605H384.749C384.785 51.8312 384.946 52.337 385.229 52.6849C385.516 53.0328 385.929 53.2086 386.474 53.2086C386.947 53.2086 387.299 53.1189 387.532 52.9396C387.765 52.7602 387.919 52.5127 388.002 52.1899H389.58C389.465 52.9037 389.15 53.4597 388.644 53.8614C388.135 54.2632 387.417 54.464 386.488 54.464C385.398 54.464 384.562 54.1448 383.974 53.5063C383.386 52.8678 383.091 51.9747 383.091 50.8233H383.088ZM387.679 48.7644C387.457 48.4523 387.055 48.2945 386.474 48.2945C385.893 48.2945 385.48 48.4631 385.229 48.7967C384.978 49.1303 384.824 49.5714 384.763 50.1167H388.056C388.031 49.5284 387.905 49.0765 387.683 48.7644H387.679Z"/>
<path fill="#0E1214" d="M391.09 47.2902H392.737V48.255C393.085 47.8174 393.451 47.5126 393.834 47.3368C394.218 47.1646 394.616 47.0749 395.025 47.0749C395.793 47.0749 396.374 47.2902 396.765 47.7242C397.156 48.1582 397.353 48.7787 397.353 49.593V54.2488H395.667V49.9122C395.667 49.3957 395.571 49.0262 395.38 48.8074C395.187 48.5886 394.896 48.481 394.502 48.481C394.279 48.481 394.064 48.5205 393.852 48.603C393.641 48.6819 393.454 48.8074 393.282 48.976C393.114 49.1267 392.984 49.2917 392.902 49.4638C392.816 49.636 392.773 49.8692 392.773 50.1525V54.2488H391.087V47.2902H391.09Z"/>
<path fill="#0E1214" d="M398.72 50.7982C398.72 50.0413 398.856 49.3813 399.136 48.8254C399.412 48.2694 399.807 47.839 400.312 47.5341C400.822 47.2292 401.428 47.0785 402.131 47.0785C403.006 47.0785 403.691 47.2937 404.186 47.7206C404.681 48.1474 404.986 48.7465 405.104 49.5141L403.487 49.7293C403.415 49.3383 403.279 49.0262 403.078 48.7931C402.877 48.5599 402.558 48.4452 402.12 48.4452C401.521 48.4452 401.098 48.6604 400.843 49.0944C400.589 49.5284 400.463 50.0844 400.463 50.7623C400.463 51.4402 400.589 51.9998 400.836 52.441C401.087 52.8822 401.514 53.1046 402.12 53.1046C402.565 53.1046 402.902 52.9826 403.132 52.7423C403.358 52.502 403.505 52.1756 403.566 51.7667H405.198C405.09 52.6132 404.774 53.2768 404.254 53.7538C403.734 54.2309 403.006 54.4712 402.081 54.4712C401.001 54.4712 400.172 54.1448 399.591 53.4884C399.01 52.832 398.72 51.9388 398.72 50.8054V50.7982Z"/>
<path fill="#0E1214" d="M406.295 50.8233C406.295 50.0198 406.439 49.3383 406.722 48.7823C407.009 48.2263 407.404 47.7995 407.913 47.5125C408.422 47.222 409.011 47.0785 409.682 47.0785C410.402 47.0785 411.001 47.222 411.475 47.5125C411.948 47.8031 412.3 48.2048 412.533 48.7249C412.766 49.2415 412.881 49.8441 412.881 50.5328V51.1605H407.956C407.992 51.8312 408.153 52.337 408.437 52.6849C408.724 53.0328 409.136 53.2086 409.682 53.2086C410.155 53.2086 410.506 53.1189 410.74 52.9396C410.973 52.7602 411.127 52.5127 411.21 52.1899H412.788C412.673 52.9037 412.357 53.4597 411.852 53.8614C411.342 54.2632 410.625 54.464 409.696 54.464C408.605 54.464 407.77 54.1448 407.181 53.5063C406.593 52.8678 406.299 51.9747 406.299 50.8233H406.295ZM410.883 48.7644C410.661 48.4523 410.259 48.2945 409.678 48.2945C409.097 48.2945 408.684 48.4631 408.433 48.7967C408.182 49.1303 408.028 49.5714 407.967 50.1167H411.26C411.235 49.5284 411.109 49.0765 410.887 48.7644H410.883Z"/>
</svg>